<svg xmlns="http://www.w3.org/2000/svg" viewBox="0 0 24 24" id="Weather-Meteor--Streamline-Pixel" height="24" width="24"><desc>Weather Meteor Streamline Icon: https://streamlinehq.com</desc><title>weather-meteor</title><g><path d="M22.8525 6.862500000000001H24v1.1400000000000001h-1.1475Z" fill="#000000" stroke-width="0.75"></path><path d="M22.8525 3.4275H24V4.574999999999999h-1.1475Z" fill="#000000" stroke-width="0.75"></path><path d="M22.8525 0H24v1.1475h-1.1475Z" fill="#000000" stroke-width="0.75"></path><path d="M21.7125 10.290000000000001h1.1400000000000001v1.1400000000000001h-1.1400000000000001Z" fill="#000000" stroke-width="0.75"></path><path d="M21.7125 4.574999999999999h1.1400000000000001v1.1400000000000001h-1.1400000000000001Z" fill="#000000" stroke-width="0.75"></path><path d="M21.7125 1.1475h1.1400000000000001v1.1400000000000001h-1.1400000000000001Z" fill="#000000" stroke-width="0.75"></path><path d="M20.572499999999998 11.43h1.1400000000000001v1.1475h-1.1400000000000001Z" fill="#000000" stroke-width="0.75"></path><path d="M20.572499999999998 5.715h1.1400000000000001v1.1475h-1.1400000000000001Z" fill="#000000" stroke-width="0.75"></path><path d="M20.572499999999998 2.2874999999999996h1.1400000000000001v1.1400000000000001h-1.1400000000000001Z" fill="#000000" stroke-width="0.75"></path><path d="M19.424999999999997 12.5775h1.1475v2.2800000000000002H19.424999999999997Z" fill="#000000" stroke-width="0.75"></path><path d="M19.424999999999997 8.0025h1.1475v1.1400000000000001H19.424999999999997Z" fill="#000000" stroke-width="0.75"></path><path d="M19.424999999999997 3.4275h1.1475V4.574999999999999H19.424999999999997Z" fill="#000000" stroke-width="0.75"></path><path d="M19.424999999999997 0h1.1475v1.1475H19.424999999999997Z" fill="#000000" stroke-width="0.75"></path><path d="M18.285 14.857499999999998h1.1400000000000001v2.2874999999999996h-1.1400000000000001Z" fill="#000000" stroke-width="0.75"></path><path d="M18.285 9.1425h1.1400000000000001v1.1475h-1.1400000000000001Z" fill="#000000" stroke-width="0.75"></path><path d="M18.285 4.574999999999999h1.1400000000000001v1.1400000000000001h-1.1400000000000001Z" fill="#000000" stroke-width="0.75"></path><path d="M18.285 1.1475h1.1400000000000001v1.1400000000000001h-1.1400000000000001Z" fill="#000000" stroke-width="0.75"></path><path d="M17.137500000000003 17.145h1.1475v2.2874999999999996h-1.1475Z" fill="#000000" stroke-width="0.75"></path><path d="M17.137500000000003 2.2874999999999996h1.1475v1.1400000000000001h-1.1475Z" fill="#000000" stroke-width="0.75"></path><path d="M15.997499999999999 11.43h1.1400000000000001v1.1475h-1.1400000000000001Z" fill="#000000" stroke-width="0.75"></path><path d="M15.997499999999999 6.862500000000001h1.1400000000000001v1.1400000000000001h-1.1400000000000001Z" fill="#000000" stroke-width="0.75"></path><path d="M15.997499999999999 0h1.1400000000000001v1.1475h-1.1400000000000001Z" fill="#000000" stroke-width="0.75"></path><path d="M14.857499999999998 19.4325h2.2800000000000002v1.1400000000000001h-2.2800000000000002Z" fill="#000000" stroke-width="0.75"></path><path d="M14.857499999999998 3.4275h1.1400000000000001V4.574999999999999h-1.1400000000000001Z" fill="#000000" stroke-width="0.75"></path><path d="M14.857499999999998 1.1475h1.1400000000000001v1.1400000000000001h-1.1400000000000001Z" fill="#000000" stroke-width="0.75"></path><path d="M13.71 20.572499999999998h1.1475v1.1475h-1.1475Z" fill="#000000" stroke-width="0.75"></path><path d="M13.71 9.1425h1.1475v1.1475h-1.1475Z" fill="#000000" stroke-width="0.75"></path><path d="M12.57 5.715h1.1400000000000001v1.1475h-1.1400000000000001Z" fill="#000000" stroke-width="0.75"></path><path d="M12.57 1.1475h1.1400000000000001v1.1400000000000001h-1.1400000000000001Z" fill="#000000" stroke-width="0.75"></path><path d="M11.43 21.72h2.2800000000000002v1.1400000000000001h-2.2800000000000002Z" fill="#000000" stroke-width="0.75"></path><path d="M11.43 6.862500000000001h1.1400000000000001v1.1400000000000001h-1.1400000000000001Z" fill="#000000" stroke-width="0.75"></path><path d="M10.2825 2.2874999999999996h2.2874999999999996v1.1400000000000001h-2.2874999999999996Z" fill="#000000" stroke-width="0.75"></path><path d="M6.855 22.86h4.574999999999999V24h-4.574999999999999Z" fill="#000000" stroke-width="0.75"></path><path d="M9.1425 3.4275h1.1400000000000001V4.574999999999999h-1.1400000000000001Z" fill="#000000" stroke-width="0.75"></path><path d="M6.855 4.574999999999999h2.2874999999999996v1.1400000000000001H6.855Z" fill="#000000" stroke-width="0.75"></path><path d="M11.43 20.572499999999998v-1.1400000000000001h1.1400000000000001v-1.1475h1.1400000000000001v-1.1400000000000001h1.1475v-4.5675h-1.1475v-1.1475h-1.1400000000000001v-1.1400000000000001h-1.1400000000000001v-1.1475h-4.574999999999999v1.1475H5.715v1.1400000000000001H4.5675v1.1475H3.4275v4.5675h1.1400000000000001v1.1400000000000001h1.1475v1.1475h1.1400000000000001v1.1400000000000001Zm-2.2874999999999996 -9.1425h2.2874999999999996v1.1475h1.1400000000000001v1.1400000000000001h1.1400000000000001v2.2874999999999996h-1.1400000000000001v-2.2874999999999996h-1.1400000000000001v-1.1400000000000001h-2.2874999999999996Z" fill="#000000" stroke-width="0.75"></path><path d="M3.4275 21.72h3.4275v1.1400000000000001H3.4275Z" fill="#000000" stroke-width="0.75"></path><path d="M4.5675 5.715h2.2874999999999996v1.1475H4.5675Z" fill="#000000" stroke-width="0.75"></path><path d="M3.4275 6.862500000000001h1.1400000000000001v1.1400000000000001H3.4275Z" fill="#000000" stroke-width="0.75"></path><path d="M2.2874999999999996 20.572499999999998h1.1400000000000001v1.1475H2.2874999999999996Z" fill="#000000" stroke-width="0.75"></path><path d="M2.2874999999999996 8.0025h1.1400000000000001v1.1400000000000001H2.2874999999999996Z" fill="#000000" stroke-width="0.75"></path><path d="M1.1400000000000001 18.285h1.1475v2.2874999999999996H1.1400000000000001Z" fill="#000000" stroke-width="0.75"></path><path d="M1.1400000000000001 9.1425h1.1475v2.2874999999999996H1.1400000000000001Z" fill="#000000" stroke-width="0.75"></path><path d="M0 11.43h1.1400000000000001v6.855H0Z" fill="#000000" stroke-width="0.75"></path></g></svg>